<?xml version="1.0" ?><svg height="60px" version="1.1" viewBox="0 0 60 60" width="60px" xmlns="http://www.w3.org/2000/svg" xmlns:sketch="http://www.bohemiancoding.com/sketch/ns" xmlns:xlink="http://www.w3.org/1999/xlink"><title/><defs/><g fill="none" fill-rule="evenodd" id="black" stroke="none" stroke-width="1"><g id="dribbble"><path d="M30,60 C46.5685433,60 60,46.5685433 60,30 C60,13.4314567 46.5685433,0 30,0 C13.4314567,0 0,13.4314567 0,30 C0,46.5685433 13.4314567,60 30,60 Z" fill="#000000"/><path d="M51.5087656,10.7778831 C51.2174407,11.3415774 50.8129228,12.0022457 50.272939,12.7382995 C48.6108459,15.0039039 46.1535477,17.2486846 42.7558074,19.3252264 C40.1170284,20.9379262 37.0495973,22.3711645 33.5269399,23.600484 C33.7629471,24.0981218 33.9977651,24.5998387 34.2312958,25.1055969 C34.9321123,26.6233576 35.611657,28.1568577 36.2687307,29.7056352 L36.2687307,29.7056352 C40.1945721,28.6759446 44.1767461,28.3634639 48.1565423,28.671928 C51.2205935,28.909415 54.0653546,29.5051837 56.621803,30.3296387 C57.4397923,30.5934403 58.1761483,30.8645226 58.8243946,31.1308399 C58.7912435,31.99081 58.7204454,32.8411253 58.6136016,33.6801846 C58.4808698,33.618901 58.3002603,33.5388512 58.073839,33.4436417 C57.4434722,33.1785742 56.7084622,32.9042771 55.8778687,32.6364106 C53.4939206,31.867587 50.8336686,31.3104594 47.9692441,31.088445 C44.3655247,30.8091296 40.7640396,31.0737094 37.2078389,31.9675206 C40.1896442,39.3090082 42.6631762,46.982413 44.5042697,54.9399083 C43.7837913,55.3598211 43.0434669,55.7494079 42.2850458,56.1069192 C40.4410336,47.9739022 37.9233391,40.1365626 34.8685164,32.6494642 C31.1570362,33.8831027 27.5059389,35.8313803 23.9650831,38.5931298 C19.6450379,41.9626211 15.6044386,46.4768308 11.8994734,52.242599 L10.8304689,51.5556785 C10.5388268,51.2961338 10.2524869,51.0307597 9.97163211,50.759739 C13.7903145,44.8523341 17.9761579,40.1904576 22.4744304,36.6819549 C26.1863202,33.7868046 30.0254331,31.7271011 33.9327765,30.4061169 C33.318227,28.9643904 32.6838964,27.536107 32.0307879,26.1216676 C31.7571449,25.529038 31.4817176,24.9420647 31.2046708,24.3608133 C23.3489622,26.7712667 13.4362249,28.2482943 1.21590767,28.5613034 L1.20737401,28.2281369 C1.25015538,27.5221245 1.31833101,26.8229663 1.41099941,26.1315638 C13.1323987,25.8146386 22.6250916,24.4125807 30.1324224,22.1555066 L30.1324224,22.1555066 C27.7054763,17.2615674 25.1734271,12.8009462 22.6425817,8.81592815 C21.524778,7.05585709 20.4878904,5.51749159 19.5587959,4.21147519 C19.3333206,3.89452744 19.1257852,3.60765587 18.9373237,3.35130878 C19.7103057,3.0300567 20.5002731,2.74145661 21.3055044,2.48723001 C21.3795622,2.59024257 21.4556717,2.6966623 21.5337903,2.8064726 C22.48703,4.14642956 23.5476005,5.71993204 24.6885979,7.51652353 C27.3200418,11.6599419 29.9502284,16.3041426 32.4652348,21.4050465 C35.9340311,20.2123716 38.9333981,18.8207319 41.4918711,17.2571114 C44.6224689,15.3438347 46.84468,13.3138098 48.3186704,11.3046087 C48.8218417,10.6187343 49.1958855,9.98982932 49.4599828,9.43468349 C49.5752396,9.19240794 49.6466437,9.01562507 49.6830069,8.91242096 C50.3191744,9.50646936 50.9284364,10.1289658 51.5087656,10.7778831 Z" fill="#FFFFFF"/></g></g></svg>