<?xml version="1.0" encoding="utf-8"?>
<!-- Generator: Adobe Illustrator 25.4.1, SVG Export Plug-In . SVG Version: 6.00 Build 0)  -->
<svg version="1.1" xmlns="http://www.w3.org/2000/svg" xmlns:xlink="http://www.w3.org/1999/xlink" x="0px" y="0px"
	 viewBox="0 0 600 600" style="enable-background:new 0 0 600 600;" xml:space="preserve">
<style type="text/css">
	.st0{fill:#FFFFFF;}
	.st1{fill:none;stroke:#000000;stroke-width:26;stroke-miterlimit:10;}
	.st2{fill:#327F39;}
	.st3{fill:#F4F1EA;}
	.st4{fill:#0A7C48;}
	.st5{fill:#E7F4DF;}
	.st6{fill:none;stroke:#000000;stroke-width:9;stroke-miterlimit:10;}
</style>
<g id="Layer_1">
	<g>
		<path d="M447.173,463.499c0.202-0.232,0.4-0.468,0.599-0.702c0.202-0.232,0.399-0.466,0.598-0.701
			c0.202-0.232,0.4-0.467,0.599-0.701c0.202-0.232,0.399-0.467,0.598-0.701c0.202-0.232,0.399-0.467,0.599-0.701
			c0.202-0.232,0.399-0.467,0.598-0.701c0.202-0.232,0.399-0.467,0.599-0.701c0.202-0.232,0.399-0.467,0.598-0.701
			c0.202-0.232,0.399-0.467,0.598-0.701c0.202-0.232,0.399-0.467,0.599-0.701c0.202-0.232,0.399-0.467,0.598-0.701
			c0.202-0.232,0.399-0.467,0.599-0.701c0.202-0.232,0.399-0.467,0.598-0.701c0.202-0.232,0.399-0.467,0.598-0.701
			c0.202-0.232,0.399-0.467,0.599-0.701c0.202-0.232,0.399-0.467,0.599-0.701c0.202-0.232,0.399-0.467,0.598-0.701
			c0.202-0.232,0.399-0.467,0.598-0.701c0.202-0.232,0.399-0.467,0.599-0.701c0.202-0.231,0.399-0.466,0.598-0.701
			c0.202-0.232,0.4-0.468,0.6-0.703c0.201-0.231,0.398-0.466,0.597-0.699c0.202-0.232,0.4-0.467,0.599-0.702
			c0.202-0.232,0.399-0.467,0.598-0.701c0.202-0.232,0.399-0.467,0.599-0.701c0.202-0.232,0.4-0.468,0.599-0.702
			c0.202-0.231,0.399-0.466,0.598-0.7c0.202-0.232,0.4-0.467,0.599-0.702c0.202-0.232,0.399-0.467,0.599-0.701
			c0.202-0.232,0.399-0.467,0.598-0.701c0.202-0.232,0.399-0.467,0.598-0.701c0.202-0.232,0.399-0.467,0.599-0.701
			c0.202-0.232,0.399-0.467,0.598-0.701c0.202-0.232,0.399-0.467,0.599-0.701c0.202-0.232,0.399-0.467,0.598-0.701
			c0.202-0.232,0.399-0.467,0.598-0.701c0.202-0.232,0.4-0.467,0.599-0.701c0.202-0.232,0.399-0.467,0.599-0.701
			c0.202-0.232,0.399-0.467,0.598-0.701c0.202-0.232,0.399-0.467,0.598-0.701c0.202-0.232,0.399-0.467,0.599-0.701
			c0.202-0.232,0.399-0.467,0.599-0.701c0.202-0.232,0.399-0.467,0.598-0.701c0.202-0.232,0.4-0.467,0.599-0.702
			c0.202-0.232,0.399-0.467,0.598-0.701c0.202-0.232,0.399-0.467,0.598-0.701c0.202-0.232,0.399-0.467,0.599-0.701
			c0.202-0.232,0.399-0.467,0.598-0.701c4.882-5.601,8.898-11.844,11.974-18.673c4.798-10.64,7.227-22.468,7.227-35.145
			c0-18.26-6.286-34.906-18.053-48.545c10.65-14.052,16.181-30.161,16.181-47.562c0-30.161-13.111-48.865-24.102-59.256
			c-14.145-13.359-32.88-20.711-52.753-20.711h-6.984c0.866-0.815,1.681-1.69,2.438-2.623c0.202-0.232,0.405-0.462,0.599-0.702
			c0.201-0.231,0.404-0.461,0.598-0.701c0.202-0.232,0.405-0.462,0.599-0.702c0.201-0.231,0.404-0.461,0.598-0.7
			c0.202-0.232,0.405-0.462,0.599-0.702c0.201-0.231,0.404-0.461,0.598-0.7c0.202-0.232,0.405-0.462,0.599-0.702
			c0.202-0.232,0.404-0.462,0.599-0.701c0.201-0.232,0.404-0.462,0.598-0.701c0.202-0.232,0.405-0.462,0.599-0.701
			c0.201-0.231,0.404-0.461,0.598-0.7c0.202-0.232,0.405-0.462,0.6-0.702c0.201-0.231,0.404-0.461,0.598-0.7
			c0.202-0.232,0.405-0.462,0.599-0.702c0.201-0.231,0.404-0.461,0.598-0.7c0.202-0.232,0.405-0.462,0.599-0.702
			c0.201-0.232,0.404-0.462,0.599-0.701c0.201-0.231,0.404-0.461,0.598-0.701c0.202-0.232,0.405-0.462,0.599-0.701
			c0.201-0.231,0.404-0.461,0.598-0.7c0.202-0.232,0.405-0.462,0.599-0.702c0.202-0.231,0.404-0.461,0.598-0.701
			c0.202-0.231,0.404-0.461,0.599-0.701c0.202-0.232,0.404-0.462,0.599-0.701c0.201-0.232,0.404-0.462,0.598-0.701
			c0.202-0.232,0.404-0.462,0.599-0.701c0.201-0.232,0.404-0.462,0.599-0.701c0.202-0.232,0.405-0.462,0.599-0.701
			c0.201-0.231,0.404-0.461,0.598-0.7c0.202-0.232,0.405-0.462,0.599-0.702c0.202-0.231,0.404-0.461,0.598-0.701
			c0.202-0.232,0.405-0.462,0.599-0.701c0.201-0.231,0.404-0.461,0.598-0.7c0.202-0.232,0.405-0.462,0.599-0.702
			c0.202-0.231,0.404-0.461,0.598-0.701c0.202-0.232,0.405-0.462,0.599-0.702c0.202-0.232,0.405-0.462,0.599-0.701
			c0.201-0.231,0.404-0.461,0.598-0.7c0.202-0.232,0.405-0.462,0.599-0.702c0.202-0.231,0.404-0.461,0.598-0.7
			c0.202-0.232,0.405-0.462,0.599-0.702c0.201-0.231,0.404-0.461,0.598-0.7c0.202-0.232,0.405-0.462,0.599-0.702
			c0.201-0.231,0.404-0.461,0.598-0.7c0.202-0.232,0.405-0.462,0.599-0.702c0.201-0.231,0.404-0.461,0.598-0.7
			c0.202-0.232,0.405-0.462,0.599-0.702c0.201-0.231,0.404-0.461,0.598-0.7c0.202-0.232,0.404-0.462,0.599-0.701
			c0.202-0.232,0.405-0.462,0.599-0.702c1.34-1.54,2.528-3.237,3.508-5.094l9.089-17.215c4.043-7.652,3.774-17.009-0.682-24.412
			c-4.467-7.413-12.625-12.015-21.269-12.015H258.411c-7.552,0-14.554,3.411-19.194,9.139c-0.202,0.231-0.405,0.461-0.599,0.701
			c-0.202,0.231-0.404,0.461-0.598,0.701c-0.202,0.231-0.404,0.461-0.598,0.701c-0.202,0.231-0.405,0.461-0.599,0.701
			c-0.202,0.231-0.405,0.462-0.599,0.701c-0.202,0.231-0.405,0.462-0.599,0.701c-0.202,0.231-0.404,0.461-0.598,0.701
			c-0.202,0.231-0.405,0.462-0.599,0.702c-0.202,0.231-0.404,0.461-0.598,0.701c-0.202,0.231-0.405,0.461-0.599,0.701
			c-0.202,0.231-0.404,0.461-0.598,0.701c-0.202,0.231-0.405,0.462-0.6,0.702c-0.202,0.231-0.404,0.461-0.598,0.701
			c-0.202,0.231-0.405,0.462-0.599,0.701c-0.202,0.231-0.405,0.461-0.599,0.701c-0.202,0.231-0.404,0.461-0.598,0.7
			c-0.202,0.232-0.405,0.462-0.599,0.702c-0.202,0.231-0.405,0.462-0.599,0.702c-0.202,0.231-0.404,0.461-0.598,0.701
			c-0.202,0.231-0.404,0.462-0.598,0.701c-0.202,0.231-0.404,0.461-0.598,0.7c-0.202,0.232-0.405,0.462-0.599,0.702
			c-0.202,0.231-0.405,0.462-0.599,0.701c-0.202,0.231-0.404,0.461-0.598,0.7c-0.202,0.231-0.405,0.462-0.599,0.701
			c-0.202,0.231-0.405,0.462-0.599,0.701c-0.202,0.231-0.404,0.462-0.599,0.701c-0.202,0.231-0.405,0.462-0.599,0.701
			c-0.202,0.231-0.404,0.462-0.599,0.701c-0.202,0.231-0.404,0.461-0.598,0.701c-0.202,0.231-0.405,0.462-0.599,0.701
			c-0.202,0.231-0.405,0.462-0.599,0.701c-0.202,0.231-0.404,0.461-0.598,0.701c-0.202,0.231-0.405,0.462-0.599,0.701
			c-0.202,0.231-0.405,0.462-0.599,0.702c-0.202,0.231-0.404,0.461-0.598,0.701c-0.202,0.231-0.404,0.462-0.599,0.701
			c-0.202,0.231-0.404,0.461-0.598,0.701c-0.202,0.231-0.405,0.462-0.599,0.701c-0.202,0.231-0.404,0.462-0.598,0.701
			c-0.202,0.231-0.404,0.462-0.599,0.701c-0.202,0.231-0.405,0.462-0.599,0.702c-0.202,0.231-0.404,0.461-0.598,0.701
			c-0.202,0.231-0.405,0.462-0.599,0.701c-0.202,0.231-0.404,0.461-0.598,0.701c-0.202,0.231-0.404,0.461-0.598,0.701
			c-0.202,0.231-0.405,0.462-0.599,0.702c-0.202,0.231-0.404,0.461-0.598,0.701c-0.202,0.231-0.405,0.462-0.599,0.701
			c-0.202,0.231-0.404,0.461-0.598,0.701c-1.251,1.431-2.359,3.01-3.273,4.737L93.607,365.393
			c-3.846,7.269-3.588,16.171,0.662,23.223c4.239,7.041,11.994,11.425,20.224,11.425h90.069L171.951,461.8l-0.031,0.051l-0.02,0.041
			c-3.805,7.279-3.516,16.161,0.734,23.181c4.26,7.021,11.994,11.374,20.193,11.374H366.45c28.227,0,52.329-7.558,69.689-21.868
			c3.607-2.969,6.882-6.206,9.837-9.68c0.202-0.232,0.4-0.467,0.599-0.701C446.777,463.968,446.974,463.733,447.173,463.499z"/>
		<path class="st0" d="M446.363,329.421c-0.359-0.226-0.717-0.453-1.066-0.67c12.802-9.915,26.227-25.793,26.227-48.821
			c0-38.255-27.746-58.274-55.151-58.274h-79.623c-1.132,0-2.16,0.623-2.679,1.613l-44.076,83.472l-5.972,11.321h-98.686
			c-1.28,0-2.1-1.361-1.503-2.493l35.169-66.606c0.903-1.709,2.677-2.779,4.61-2.779h70.059c1.89,0,3.625-1.046,4.508-2.717
			l9.091-17.215c1.102-2.086-0.411-4.596-2.77-4.596h-68.267c-1.28,0-2.101-1.361-1.503-2.493l35.169-66.606
			c0.903-1.709,2.677-2.779,4.61-2.779h147.057c1.89,0,3.625-1.046,4.508-2.717l9.091-17.215c1.102-2.086-0.411-4.596-2.77-4.596
			H258.41c-1.124,0-2.155,0.622-2.679,1.615l-112.416,212.91c-0.675,1.279,0.252,2.816,1.698,2.816H271.07h27.736h62.504
			c1.891,0,3.626-1.046,4.508-2.718l9.084-17.215c1.101-2.086-0.412-4.595-2.771-4.595h-60.373l5.981-11.321l30.5-57.774
			c0.906-1.717,2.679-2.783,4.613-2.783h63.519c3.142,0,30.623,0.943,30.623,33.746c0,22.859-22.189,39.68-37.359,47.151
			c-2.396,1.189-2.226,4.726,0.311,5.566c15.868,5.198,38.925,20.528,38.925,43.387c0,14.349-6.745,38.444-51.906,38.444H263.673
			c-1.274,0-2.094-1.368-1.5-2.5l22.27-42.177c3.809-7.214-1.421-15.89-9.579-15.89h-7.258c-1.544,0-2.961,0.854-3.681,2.219
			l-42.272,80.055c-0.67,1.283,0.255,2.821,1.698,2.821h173.614c47.151,0,76.435-24.132,76.435-62.972
			C473.401,356.987,464.052,340.874,446.363,329.421z"/>
	</g>
</g>
<g id="Layer_2">
</g>
</svg>
